# xmcd
#
# Track frame offsets:
#	150
#	15855
#	35242
#	56479
#	73557
#	90312
#	107311
#	119429
#	134664
#	150378
#	167249
#	185477
#	199163
#	212484
#	230911
#	247583
#	267162
#	284185
#	304728
#	319952
#	334099
#
# Disc length: 4746 seconds
#
# Revision: 3
# Processed by: cddbd v1.5.1PL2 Copyright (c) Steve Scherf et al.
# Submitted via: dBpowerAMP V4.0
#
DISCID=2c128815
DTITLE=Various Artist - GOTEE RECORDS TEN YEARS BRAND NEW
DYEAR=2004
DGENRE=Christian Rap
TTITLE0=Out of Eden - Different Now
TTITLE1=GRITS - They all Fall Down
TTITLE2=Christafari - Selah
TTITLE3=Johnny Q Public - Body Be
TTITLE4=The Gotee Brothers (E.R.A.C.E) - Celia (Queen of the Senseless World)
TTITLE5=Curious Fools - Cry
TTITLE6=Zilch - Yeah
TTITLE7=Jennifer Knapp - Undo Me
TTITLE8=Temple Yard - Lion of Judah
TTITLE9=The Katinas - Thankyou
TTITLE10=Verbs - Syllabus
TTITLE11=Sonicflood - I Want to Know You
TTITLE12=Relient K - Sadie Hawkins Dance
TTITLE13=John Reuben - Do Not
TTITLE14=DJ Maj - The Ringleader
TTITLE15=Jeff Deyo - I Fear You
TTITLE16=Sandtown - Part of Me
TTITLE17=Mars Ill - Breathe Slow
TTITLE18=Paul Wright - Your Love Never Changes
TTITLE19=LA Symphony - Gonna be Alright
TTITLE20=Sarah Kelly - Take me Away
EXTD=erhältlich unter www.gerth.de
EXTT0=
EXTT1=
EXTT2=
EXTT3=
EXTT4=
EXTT5=
EXTT6=
EXTT7=
EXTT8=
EXTT9=
EXTT10=
EXTT11=
EXTT12=
EXTT13=
EXTT14=
EXTT15=
EXTT16=
EXTT17=
EXTT18=
EXTT19=
EXTT20=
PLAYORDER=
